<?xml version="1.0" encoding="UTF-8" standalone="no"?>
<svg
   id="svg2"
   height="1153.8583pt"
   width="1153.8583pt"
   version="1.1"
   viewBox="0 0 1153.8583 1153.8583"
   sodipodi:docname="logo.svg"
   inkscape:export-filename="/home/bkis/Code/Tekst/docs/content/assets/logo.png"
   inkscape:export-xdpi="7.4879217"
   inkscape:export-ydpi="7.4879217"
   inkscape:version="1.1.2 (0a00cf5339, 2022-02-04)"
   xmlns:inkscape="http://www.inkscape.org/namespaces/inkscape"
   xmlns:sodipodi="http://sodipodi.sourceforge.net/DTD/sodipodi-0.dtd"
   xmlns="http://www.w3.org/2000/svg"
   xmlns:svg="http://www.w3.org/2000/svg">
  <defs
     id="defs6">
    <inkscape:path-effect
       effect="envelope"
       id="path-effect19147"
       is_visible="true"
       lpeversion="1"
       yy="true"
       xx="true"
       bendpath1="m 154.54322,1461.3443 c 113.15097,-25.8904 277.97652,-56.2729 455.93739,-87.7973"
       bendpath2="m 607.61159,1380.8006 c 38.82544,122.1819 45.77057,183.467 19.4269,291.9107"
       bendpath3="m 130.9246,1855.6658 c 157.71113,-45.5291 314.48652,-97.7589 468.7311,-168.1115"
       bendpath4="m 156.23458,1462.8337 c 39.93894,172.2953 14.30611,283.4433 -32.23502,406.1321"
       bendpath1-nodetypes="cc"
       bendpath3-nodetypes="cc"
       bendpath4-nodetypes="cc"
       bendpath2-nodetypes="cc" />
    <rect
       x="20.772636"
       y="1451.3612"
       width="1274.042"
       height="565.30304"
       id="rect6778" />
    <rect
       x="54.098156"
       y="1537.3148"
       width="421.13599"
       height="254.23276"
       id="rect2526" />
    <inkscape:path-effect
       effect="perspective-envelope"
       up_left_point="0,0"
       up_right_point="0,0"
       down_left_point="0,0"
       down_right_point="0,0"
       id="path-effect873"
       is_visible="true"
       lpeversion="0"
       deform_type="perspective"
       horizontal_mirror="false"
       vertical_mirror="false"
       overflow_perspective="false" />
    <rect
       x="-633.40753"
       y="1336.0967"
       width="887.91437"
       height="582.73712"
       id="rect18707" />
    <rect
       x="985.94543"
       y="1947.8601"
       width="494.15033"
       height="230.80635"
       id="rect6979" />
  </defs>
  <sodipodi:namedview
     id="namedview4"
     pagecolor="#ff00ff"
     bordercolor="#666666"
     borderopacity="1.0"
     inkscape:pageshadow="2"
     inkscape:pageopacity="0"
     inkscape:pagecheckerboard="true"
     inkscape:document-units="pt"
     showgrid="false"
     inkscape:snap-nodes="false"
     inkscape:snap-others="false"
     inkscape:snap-global="false"
     fit-margin-top="10"
     fit-margin-left="10"
     fit-margin-right="10"
     fit-margin-bottom="10"
     lock-margins="true"
     inkscape:zoom="0.27615894"
     inkscape:cx="914.32854"
     inkscape:cy="858.20144"
     inkscape:window-width="1920"
     inkscape:window-height="1043"
     inkscape:window-x="0"
     inkscape:window-y="0"
     inkscape:window-maximized="1"
     inkscape:current-layer="g39282" />
  <text
     xml:space="preserve"
     transform="matrix(0.75,0,0,0.75,-32.423975,-789.32777)"
     id="text6977"
     style="font-style:normal;font-weight:normal;font-size:192px;line-height:1.25;font-family:sans-serif;white-space:pre;shape-inside:url(#rect6979);fill:#000000;fill-opacity:1;stroke:none"><tspan
       x="985.94531"
       y="2348.541"
       id="tspan31636"><tspan
         dx="0 117.28125 121.3125 125.90625 121.875"
         id="tspan31634">TEKST</tspan></tspan></text>
  <g
     aria-label="TEKST"
     transform="matrix(0.26096961,-0.00365865,-0.16692543,0.3933369,1181.0995,-16.31813)"
     id="text18705"
     style="font-size:400px;line-height:1.25;white-space:pre;shape-inside:url(#rect18707)">
    <g
       id="g39282"
       transform="matrix(0.94177725,0.05756889,-0.22638941,0.92911859,1711.2454,1398.9392)"
       inkscape:transform-center-x="67.755077"
       inkscape:transform-center-y="-67.734679">
      <path
         style="fill:#a2a2a2;fill-opacity:1;fill-rule:evenodd;stroke:#000000;stroke-width:0;stroke-linejoin:round;stroke-miterlimit:4;stroke-dasharray:none;stroke-opacity:1"
         d="M 805.29939,37.600771 C 716.38233,44.908621 628.10532,58.680454 539.81798,71.320443 408.48681,91.666372 276.89661,112.162 147.74737,143.91763 c -20.8815,7.03456 -44.93771,9.05994 -62.520606,23.32853 -11.951994,15.68488 -10.377492,37.20365 -13.20076,55.83713 -3.690497,58.1788 -1.388255,117.00154 8.242961,174.52374 4.861899,17.82703 6.766041,39.63321 22.179255,51.92958 18.74189,9.90303 41.24368,6.38716 61.6402,9.00142 225.71489,10.68698 451.73662,11.55063 677.65893,12.53071 8.71947,-8.69292 6.91732,-24.21553 3.73073,-35.6912 -1.9905,-7.12742 -4.41831,-16.79788 -14.18026,-13.46138 -215.80482,-1.29648 -431.72075,0.18828 -647.44098,-4.60845 -19.55961,-1.83182 -40.34595,1.15521 -58.93232,-6.10741 -11.11527,-10.00713 -11.75609,-26.73438 -14.77438,-40.57828 -1.72628,-37.01879 -2.40933,-74.65327 1.88127,-111.47269 4.28603,-23.92106 6.74659,-49.88798 20.27677,-70.86965 19.48251,-16.61132 46.62879,-18.94354 70.49835,-24.89508 195.18328,-36.62385 393.88127,-48.28699 591.13576,-69.896305 10.16268,0.405558 20.92295,-5.125322 22.08603,-16.11197 1.97082,-12.809717 -1.56463,-25.823817 -5.13815,-38.018046 -1.19918,-1.936351 -3.65968,-1.726121 -5.59078,-1.757508 z"
         id="path27654"
         transform="matrix(3.0316359,-0.15889915,1.7726595,1.9546748,-6882.6486,-1079.8699)" />
      <path
         style="fill:#a2a2a2;fill-opacity:1;fill-rule:evenodd;stroke:#000000;stroke-width:0;stroke-linejoin:round;stroke-miterlimit:4;stroke-dasharray:none;stroke-opacity:1"
         d="m 1250.4511,370.84481 c -117.9496,12.85821 -236.3478,23.41015 -353.23724,44.28026 -9.11316,2.69674 -19.87377,1.82256 -28.12082,6.19947 -2.42215,13.92959 -1.87855,29.50373 3.51855,42.80965 2.80023,7.09067 9.20876,15.88642 17.86818,11.06449 126.67213,-28.29332 254.38673,-51.67853 381.27353,-78.82934 8.5383,-4.32025 -2.6782,-12.65991 -6.0137,-16.52244 -4.1148,-4.21989 -8.8885,-9.21711 -15.2885,-9.00209 z"
         id="path27693"
         transform="matrix(3.0316359,-0.15889915,1.7726595,1.9546748,-6882.6486,-1079.8699)" />
      <path
         style="fill:#a2a2a2;fill-opacity:1;fill-rule:evenodd;stroke:#000000;stroke-width:0;stroke-linejoin:round;stroke-miterlimit:4;stroke-dasharray:none;stroke-opacity:1"
         d="m 849.18404,50.808603 c -19.50148,0.771259 -32.6716,28.956146 -19.82412,44.026107 9.30866,6.45515 22.10465,2.727582 32.61492,5.7293 114.72451,12.57013 229.06986,29.69563 344.36426,36.2932 16.2612,-0.70759 33.846,2.08821 49.2819,-3.74277 10.4207,-11.58668 8.2719,-29.46405 6.7684,-43.817472 -6.5431,-5.955261 -17.9281,-3.046327 -26.1929,-5.541276 C 1107.554,69.045397 978.67568,54.938801 849.18404,50.808603 Z"
         id="path27732"
         transform="matrix(3.0316359,-0.15889915,1.7726595,1.9546748,-6882.6486,-1079.8699)" />
      <path
         style="fill:#a2a2a2;fill-opacity:1;fill-rule:evenodd;stroke:#000000;stroke-width:0;stroke-linejoin:round;stroke-miterlimit:4;stroke-dasharray:none;stroke-opacity:1"
         d="m 173.77759,965.08056 c -23.19769,1.21574 -47.54856,-1.14656 -69.83001,6.40412 -17.371715,12.68968 -19.430059,36.58252 -24.332819,55.94322 -8.825268,55.1391 -20.97054,110.0042 -24.491953,165.8317 0.660441,19.6433 -1.681901,40.6173 5.721626,59.1859 4.875702,30.4626 22.822732,43.8101 53.654116,58.1361 57.21325,29.5959 122.5589,43.6859 183.29985,64.3622 98.51187,31.815 196.32287,65.8647 295.31173,96.176 44.11433,10.746 88.75476,20.1149 133.75913,26.0119 12.36473,0.897 9.87618,-14.667 10.71832,-22.4905 0.134,-18.3999 1.3185,-37.4576 -1.52057,-55.4092 -178.4266,-46.03 -356.81995,-93.6138 -531.7189,-151.9195 -27.69876,-10.5606 -57.39803,-18.0513 -81.78579,-35.462 -10.9361,-11.3043 -13.44089,-27.5554 -15.99792,-42.403 -1.77008,-38.1282 -4.17211,-78.2055 8.42606,-115.0124 6.38421,-19.2103 15.43718,-39.9591 33.16004,-51.279 23.97177,-7.0331 49.51328,-2.8623 74.15764,-3.5278 166.34482,6.0365 331.97924,24.2342 497.55635,41.0068 26.33728,1.6853 52.87685,7.603 79.26418,4.8604 15.12342,-4.6291 13.23104,-23.5617 10.60869,-35.7867 -2.46291,-8.2416 -1.97434,-23.4377 -14.37319,-21.7921 -203.3267,-18.57369 -406.72567,-40.95566 -611.09458,-42.87504 -3.49733,0.013 -6.99467,0.0259 -10.492,0.0389 z"
         id="path27771"
         transform="matrix(3.0316359,-0.15889915,1.7726595,1.9546748,-6882.6486,-1079.8699)"
         sodipodi:nodetypes="ccccccccccccccccccccccc" />
      <path
         style="fill:#a2a2a2;fill-opacity:1;fill-rule:evenodd;stroke:#000000;stroke-width:0;stroke-linejoin:round;stroke-miterlimit:4;stroke-dasharray:none;stroke-opacity:1"
         d="m 1410.059,806.15869 c -37.9712,7.45052 -74.2406,22.01279 -111.2891,33.03512 -132.8269,43.74514 -270.4483,80.2853 -397.54345,139.0647 -24.60159,12.00818 -61.5354,18.42902 -77.97075,41.59279 -4.3885,7.6862 -1.0892,25.5948 -0.66413,35.2158 7.36924,8.038 19.44097,11.9637 30.19943,13.0593 29.81177,-3.2516 58.19116,-14.5486 87.2107,-21.7468 144.4248,-42.4566 286.9141,-91.17272 429.737,-138.65725 20.0773,-8.07007 42.5329,-12.37614 60.2187,-25.2871 8.0494,-12.13696 4.4834,-28.38668 4.464,-42.16206 -0.6622,-14.05338 -8.4257,-32.59531 -24.3624,-34.1145 z"
         id="path27810"
         transform="matrix(3.0316359,-0.15889915,1.7726595,1.9546748,-6882.6486,-1079.8699)"
         sodipodi:nodetypes="ccccccccccc" />
      <path
         style="fill:#a2a2a2;fill-opacity:1;fill-rule:evenodd;stroke:#000000;stroke-width:0;stroke-linejoin:round;stroke-miterlimit:4;stroke-dasharray:none;stroke-opacity:1"
         d="m 1494.2213,1142.1504 c -67.003,18.8603 -132.7694,42.3374 -197.5658,67.7896 -76.0273,29.7709 -148.8426,67.4363 -224.8054,97.0661 -80.81881,27.248 -159.13369,61.3523 -238.88226,91.5185 -22.24624,9.2738 -45.82691,16.4211 -67.33428,26.6979 -6.23828,19.2657 -7.27646,40.7124 -5.29031,60.915 0.81163,8.6353 8.95425,16.975 17.78954,11.9538 89.1814,-32.6452 176.00905,-71.3935 263.45811,-108.3618 148.2607,-64.2393 296.2222,-129.3167 446.0739,-189.6453 18.3139,-4.9488 23.7413,-27.01 21.9816,-43.6439 -1.245,-7.1233 -8.1354,-13.8634 -15.4251,-14.2899 z"
         id="path27849"
         transform="matrix(3.0316359,-0.15889915,1.7726595,1.9546748,-6882.6486,-1079.8699)" />
      <path
         style="fill:#ffffff;fill-opacity:1;fill-rule:evenodd;stroke:#000000;stroke-width:0;stroke-linejoin:round;stroke-miterlimit:4;stroke-dasharray:none;stroke-opacity:1"
         d="m 803.67979,114.16023 c -164.3742,18.92849 -328.62264,39.19904 -492.55879,61.64641 -49.14881,7.64871 -98.88287,12.48668 -147.4924,23.11003 -20.25845,4.20959 -31.0425,23.87693 -35.15016,42.53382 -11.52344,44.44676 -10.18427,91.84459 -0.61884,136.50923 4.3582,15.24175 23.98805,12.54627 36.09955,15.36108 83.40567,9.17979 167.50211,5.48001 251.24057,6.77068 137.37249,-0.0181 274.78566,0.25354 412.10211,-4.06869 6.79836,-4.61487 -3.09368,-12.91098 -4.42324,-18.66383 -10.76789,-19.04977 -16.55903,-40.27753 -21.24981,-61.4071 -5.70977,-3.03532 0.48431,-12.16081 -2.40448,-19.17123 -2.13529,-41.31571 -3.45551,-82.41292 2.09881,-123.30929 1.34886,-19.19113 5.36716,-38.2613 6.37032,-57.37679 -1.35008,-0.66987 -2.28487,-2.48512 -4.01364,-1.93432 z M 751.9942,219.90068 c -47.9292,7.04755 -95.8848,16.17677 -144.31014,17.63873 51.54142,-6.78228 102.84901,-15.45118 154.7102,-19.13809 -3.46668,0.49979 -6.93336,0.99957 -10.40006,1.49936 z m -10.06412,45.59973 c 7.62127,-0.16363 21.02543,0.70244 24.72888,2.5956 -33.24702,-2.73555 -66.17076,5.24816 -99.27267,6.31218 24.74066,-4.28128 49.6018,-8.76688 74.54379,-8.90778 z m 46.09835,49.39057 c -25.25204,4.36378 -52.00741,7.3354 -76.78225,3.90754 26.67302,-0.56607 53.38644,-4.16856 79.83047,-4.32127 l -1.79409,0.2435 z"
         id="path27041"
         transform="matrix(3.0316359,-0.15889915,1.7726595,1.9546748,-6882.6486,-1079.8699)" />
      <path
         style="fill:#ffffff;fill-opacity:1;fill-rule:evenodd;stroke:#000000;stroke-width:0;stroke-linejoin:round;stroke-miterlimit:4;stroke-dasharray:none;stroke-opacity:1"
         d="m 866.15089,131.99699 c -12.28533,0.56569 -25.33875,-0.26589 -37.01375,3.23212 -12.4613,61.51261 -20.94097,126.03833 -7.85398,188.20541 6.05114,27.24746 21.35682,52.33477 43.37544,69.5365 39.0432,-6.84557 78.01327,-15.94403 117.51258,-20.76476 84.39452,-11.74121 169.65942,-16.23598 254.60532,-23.21892 5.8374,-5.2955 -1.5713,-14.87091 -1.0786,-21.64882 -9.2905,-44.61584 -5.3206,-89.07061 4.381,-134.23556 0.71,-8.73338 -1.9813,-16.30718 -5.0281,-25.07529 -6.7017,-11.21041 -21.933,-8.20395 -32.8104,-11.49758 -73.5139,-7.55659 -147.0281,-15.20092 -220.68099,-21.42475 -38.42347,-2.15375 -76.92404,-3.25731 -115.40852,-3.10835 z"
         id="path27080"
         transform="matrix(3.0316359,-0.15889915,1.7726595,1.9546748,-6882.6486,-1079.8699)"
         sodipodi:nodetypes="cccccccccccc"
         inkscape:export-filename="/home/bkis/Code/Tekst/docs/content/assets/path27080.png"
         inkscape:export-xdpi="7.4879217"
         inkscape:export-ydpi="7.4879217" />
      <path
         style="fill:#ffffff;fill-opacity:1;fill-rule:evenodd;stroke:#000000;stroke-width:0;stroke-linejoin:round;stroke-miterlimit:4;stroke-dasharray:none;stroke-opacity:1"
         d="m 510.25375,544.89115 c -135.42589,0.80777 -270.90234,1.52948 -406.25666,5.99038 -8.336589,3.86958 2.90882,13.04065 3.94189,18.66964 14.07261,24.07162 24.25857,50.1912 38.35146,74.22721 3.19352,1.33918 -3.08977,5.23976 0.39606,8.62134 7.80481,42.47035 8.29201,85.75837 11.65189,128.72598 6.47582,3.2023 -3.42252,7.86163 -3.18968,14.70365 -5.40459,15.9156 -17.86939,28.76722 -22.04488,45.01625 3.33593,7.30172 14.93846,4.08551 21.46439,6.75477 127.0498,19.63574 255.33444,29.51174 383.2441,41.70443 50.22323,4.98149 100.72978,8.71822 151.1694,4.58605 20.6248,-0.74562 43.60286,-5.05852 56.21938,-23.20651 29.88621,-39.64226 39.8179,-90.42749 44.78973,-138.81169 3.49576,-49.87656 4.17394,-101.53353 -11.0576,-149.67777 -4.41411,-15.20251 -16.6983,-28.31594 -33.25474,-29.09613 -78.01486,-9.83546 -156.96425,-7.88461 -235.42474,-8.2076 z M 177.66391,648.89178 c 68.46156,4.61713 137.68938,1.35622 205.72991,7.45975 4.59291,0.98303 -15.59139,-0.32195 -21.1016,-0.20997 -61.85406,-2.46104 -124.4,0.66063 -185.71393,-7.32758 z m 102.0557,64.80855 c 15.40017,0.0975 30.65262,1.30914 45.98163,3.79084 -38.64631,0.29647 -78.94221,0.28538 -116.56839,-0.47739 23.3595,-1.9956 47.05669,-3.18362 70.58676,-3.31345 z m -106.54672,70.64333 c 40.21677,2.33864 79.8466,12.25914 119.35496,20.50309 -41.0219,-3.58645 -80.88334,-14.65272 -121.55449,-20.55259 l 1.81009,0.0407 z"
         id="path27119"
         transform="matrix(3.0316359,-0.15889915,1.7726595,1.9546748,-6882.6486,-1079.8699)" />
      <path
         style="fill:#ffffff;fill-opacity:1;fill-rule:evenodd;stroke:#000000;stroke-width:0;stroke-linejoin:round;stroke-miterlimit:4;stroke-dasharray:none;stroke-opacity:1"
         d="m 174.81724,1043.0333 c -19.49911,-1.6578 -28.88784,19.0776 -31.40883,35.2633 -7.7318,44.2523 -3.25889,90.2121 7.99896,133.4645 2.37126,13.1387 12.27605,22.7533 24.56368,27.1052 59.07154,24.6543 122.13583,37.7901 184.02952,53.2853 130.71293,30.3768 262.34973,56.8491 394.12952,82.0005 9.69707,-0.6475 3.96494,-13.2119 4.13515,-18.9761 -5.60058,-70.6448 5.95485,-142.2486 26.28707,-210.2461 3.15011,-13.0679 10.73762,-25.7466 11.25937,-39.1674 -7.8958,-6.291 -20.12428,-3.723 -29.65088,-6.1498 -184.12762,-19.7564 -368.18553,-40.8115 -552.85166,-54.9457 -12.81639,-0.7834 -25.6451,-1.6782 -38.4919,-1.6337 z m 410.16418,95.4217 c 46.04601,-0.4929 92.64019,0.3109 137.74338,8.5117 -63.3542,-6.4356 -127.13021,-6.1561 -190.71262,-8.3561 17.65617,-0.1175 35.31276,-0.1306 52.96924,-0.1556 z m 28.43486,52.2762 c 36.61569,5.256 72.91749,15.1257 109.46057,22.3631 -38.44793,-2.8868 -75.56304,-13.6799 -112.86949,-22.7804 l 1.79713,0.22 z m -5.0851,61.5835 c 32.27524,6.1072 68.18235,11.9703 98.31437,18.0277 -36.23216,-0.4137 -71.99047,-9.1661 -106.47246,-19.5483 2.71936,0.5069 5.43872,1.0137 8.15809,1.5206 z"
         id="path27158"
         transform="matrix(3.0316359,-0.15889915,1.7726595,1.9546748,-6882.6486,-1079.8699)" />
      <path
         style="fill:#ffffff;fill-opacity:1;fill-rule:evenodd;stroke:#000000;stroke-width:0;stroke-linejoin:round;stroke-miterlimit:4;stroke-dasharray:none;stroke-opacity:1"
         d="m 1358.0198,938.35017 c -175.7843,55.07004 -355.0115,98.51003 -530.60127,154.26463 -29.20445,47.7863 -44.21087,103.8308 -49.7053,159.47 -2.22866,42.2309 -4.1268,85.1156 2.69815,127.0074 2.19993,10.9851 14.05488,3.804 20.53844,1.9025 213.04308,-72.012 418.69678,-163.9847 631.54658,-236.3619 6.8758,-0.5088 9.0008,-7.3276 4.247,-12.0267 -28.1529,-41.1948 -60.6079,-82.1737 -71.9235,-131.799 -2.9209,-19.99905 1.4081,-40.82406 -3.0376,-60.52968 -0.7779,-1.27245 -2.2651,-2.07254 -3.7625,-1.92725 z m -129.8399,196.74893 c -90.9621,38.093 -187.8736,57.8326 -283.26648,81.4996 96.36388,-27.8126 194.74078,-49.1614 288.99518,-83.9325 -1.9096,0.811 -3.8192,1.622 -5.7287,2.4329 z m -179.2765,98.6716 c -63.15376,14.6668 -126.11359,30.6041 -187.60422,51.2718 62.46527,-25.7534 128.39092,-42.385 194.95612,-52.9516 -2.4506,0.5599 -4.9012,1.1199 -7.3519,1.6798 z"
         id="path27197"
         transform="matrix(3.0316359,-0.15889915,1.7726595,1.9546748,-6882.6486,-1079.8699)" />
      <text
         xml:space="preserve"
         transform="matrix(3.0316359,-0.15889915,1.7726595,1.9546748,-8879.3252,-3130.1725)"
         id="text2524"
         style="font-style:normal;font-weight:normal;font-size:266.667px;line-height:1.25;font-family:sans-serif;white-space:pre;shape-inside:url(#rect2526);fill:#1a1a1a;fill-opacity:0.99963403;stroke:none"><tspan
           x="54.097656"
           y="2027.4847"
           id="tspan31640"><tspan
             dx="0 162.89082 168.48979 174.87 169.27106"
             id="tspan31638">TEKST</tspan></tspan></text>
      <g
         id="g24031"
         transform="matrix(1.6285277,-0.01372354,-0.2374501,1.379142,1188.6203,-275.23619)"
         style="stroke:none;fill:#1a1a1a;fill-opacity:0.99963403"
         inkscape:export-filename="/home/bkis/Code/Tekst/assets/logo-light.png"
         inkscape:export-xdpi="32.512001"
         inkscape:export-ydpi="32.512001">
        <path
           id="path4"
           fill="#26231f"
           d="m 514.90034,1035.7329 c -32.33015,6.3783 -64.79985,12.9697 -96.1066,24.4215 -7.53594,3.4489 -16.90355,5.7729 -21.15415,14.4419 -7.83832,27.2446 -5.77477,56.5125 -4.93162,84.7166 2.03516,25.5135 2.93663,52.7987 14.14152,75.6284 2.57595,7.417 12.00752,3.7944 15.14749,7.3498 -8.19883,3.522 -21.14775,-3.8348 -28.98025,4.1414 -6.3323,9.3546 -4.64635,22.4715 -1.76804,33.0311 1.96539,9.3146 11.86272,5.8584 17.64261,8.4816 7.8325,40.4075 14.20491,81.6805 12.97218,123.2399 -0.88385,13.0563 -1.61651,26.7385 -6.48347,38.7963 -7.40803,-0.6259 -17.16464,-3.2825 -21.31639,6.092 -7.70458,15.6131 -9.38563,34.8613 -6.94342,52.3453 1.40718,9.9071 15.72373,6.5051 17.14835,13.7955 -12.76343,36.0797 -23.81151,73.4845 -27.47481,112.3939 -1.52347,20.3934 -1.16895,42.4042 7.6348,60.8269 6.6928,14.0484 19.81617,21.333 31.80042,28.1907 39.77305,21.0992 81.5464,36.6856 123.22089,51.9991 59.53166,20.247 120.20884,41.8856 181.59541,49.3026 72.56258,-32.1383 144.71226,-70.0784 215.79785,-106.3446 33.3303,-17.2509 66.78849,-29.925 98.38019,-51.1308 10.9608,-8.0961 23.6318,-15.2268 30.5223,-28.4164 2.4655,-13.8952 2.5058,-32.9179 -9.0658,-41.6398 -7.3963,0.8788 -14.3386,6.8717 -21.9269,6.8318 -12.5541,-22.7305 -23.8121,-46.72 -31.2899,-72.2994 -3.51206,-12.5104 -5.82576,-26.0928 -2.7266,-39.0493 10.2631,-6.8977 23.6888,-8.5689 31.754,-19.0752 3.4306,-18.8488 5.2568,-39.6145 -0.8487,-57.9507 -2.4306,-6.9243 -8.8966,-3.5891 -13.5775,-3.1229 19.4097,-49.6955 18.8573,-107.1675 11.2225,-160.0521 -4.2971,-18.5092 -7.5476,-40.1272 -21.5844,-52.5377 -14.76956,-5.8857 -30.72006,-0.752 -45.90236,-0.672 3.3551,-17.3841 -18.4148,-14.5818 -20.4326,-29.2028 -5.0472,-26.4123 -3.8088,-53.876 -1.3783,-80.5886 1.5061,-10.726 2.1397,-24.1219 11.5308,-30.0409 7.3963,-8.6488 10.0537,-26.6321 0.6396,-34.3421 -13.438,-3.2225 -27.7249,-3.7823 -40.9942,-6.6986 -274.91861,-24.94438 -49.50616,-42.90548 -396.2649,17.1376 z m 221.55158,-24.5984 c 0.91361,-0.01 1.82764,-0.01 2.74201,0.013 1.62814,7.7433 5.53549,20.4328 -1.95975,25.6593 -91.08263,11.4452 -182.85141,18.4101 -272.99205,38.1111 -11.89121,3.5821 -25.05527,5.0329 -35.05669,13.8081 -7.05332,13.7355 -8.24593,30.1016 -10.21132,45.5615 -2.03518,25.1207 -3.70419,51.3732 3.24446,75.7349 2.85506,10.2799 13.90953,7.2233 20.98029,8.668 103.19481,3.9416 206.56988,3.1967 309.78794,2.5509 3.50323,11.3841 3.98488,16.8223 1.00596,23.469 -106.39294,-1.558 -212.85564,-0.8131 -319.11484,-7.8106 -7.37895,-1.3582 -17.47863,0.4136 -20.98494,-9.3338 -6.16366,-15.6464 -7.00739,-33.1237 -8.68204,-49.9484 -1.55836,-29.9145 -2.96553,-60.3949 2.12239,-89.9632 1.3781,-10.7993 12.79309,-11.6575 19.81734,-15.2528 63.4043,-20.5134 128.76819,-31.4392 193.63781,-43.9429 35.75505,-6.0987 71.49266,-12.531 107.45123,-16.9187 2.73439,-0.2446 5.47152,-0.38 8.21278,-0.4047 z m 21.7647,6.5958 c 0.61747,0.022 1.24867,0.156 1.88794,0.4139 61.93898,2.0574 123.61628,10.9591 185.13088,19.2284 1.0873,7.4303 1.663,16.0325 -2.4132,22.4707 -10.0421,2.2971 -20.3634,1.2649 -30.4985,0.5192 -52.5772,-4.2678 -104.66014,-13.842 -157.00474,-20.5932 -12.64713,2.016 -6.36427,-22.383 2.89831,-22.0394 z m -20.54011,34.7561 c -2.38406,17.6238 -4.08232,35.3873 -4.7045,53.2175 -34.37695,-1.7178 -67.68398,9.9138 -101.78182,12.5304 -2.80272,-0.033 1.24419,3.6288 2.34318,1.8445 33.44077,3.2691 66.0384,-8.4956 99.09539,-12.1843 -0.56403,16.8715 0.17991,33.7363 1.51731,50.5344 -14.57182,-0.9854 -28.92327,3.2759 -43.48928,2.5436 -2.64573,-3.3157 -3.91846,2.0966 -1.84259,2.1899 14.90327,6.2785 30.93984,1.8775 46.00011,-1.2651 2.25031,14.5278 5.76842,29.2028 13.29839,41.3536 -78.65646,2.9295 -159.80746,2.5301 -239.41173,2.4635 -24.64883,-1.4048 -49.66399,-0.3264 -73.97556,-5.8726 -6.30903,-0.9321 -5.20952,-10.1861 -6.38986,-15.3527 -2.27938,-25.1406 -3.58207,-52.312 6.03574,-75.7815 4.69253,-11.6582 17.10067,-10.5662 26.31709,-13.1629 91.00122,-16.6184 182.50834,-29.2946 273.90496,-42.6173 0.76755,-0.093 2.303,-0.2933 3.07637,-0.3932 z m 172.14003,22.0713 c 7.5243,0.9188 15.3685,1.5251 22.3578,5.0539 2.7504,3.5953 1.70562,7.8287 1.25792,11.6172 -6.0125,29.1954 -3.50792,57.7792 1.32418,86.4886 -56.35098,4.5807 -113.26019,8.3425 -168.30284,23.8889 -13.42051,-10.7261 -18.97884,-29.967 -21.26405,-47.7439 -3.36094,-27.4111 0.51384,-63.4833 5.38081,-90.5082 58.315,-4.6192 111.00005,7.2602 159.24618,11.2035 z m -201.22611,56.4946 c -2.20695,0.029 -4.39545,0.1889 -6.51371,0.4119 -13.29258,1.558 -26.27057,5.4527 -39.51663,7.3105 -1.44789,0.739 0.52281,1.8443 1.30198,1.7977 20.20635,3.2557 40.07543,-7.3298 60.2527,-3.0555 1.4944,0.1798 6.00143,0.9848 3.39618,-1.2722 -5.51677,-4.1746 -12.3,-5.2778 -18.9207,-5.1922 z m 232.70731,62.2484 c 4.606,0.1399 7.5766,7.3631 10.2148,10.3033 -58.8979,14.6276 -118.79586,27.477 -177.45531,43.8823 -6.50092,-5.7925 -5.81536,-18.9754 -5.385,-26.965 56.53705,-13.6089 114.41731,-18.6424 171.68121,-27.1513 0.322,-0.057 0.6369,-0.079 0.944,-0.07 z m 65.78716,33.6198 c 13.8508,19.8276 14.641,46.5395 15.3911,70.7614 -0.2908,37.0585 -4.3782,74.2835 -12.7978,110.0703 -15.15906,12.9764 -33.79536,19.4879 -50.95476,28.2965 -65.422,30.3738 -131.76281,58.1704 -198.28383,85.1626 21.14834,-28.2632 29.25413,-65.8543 31.61493,-102.2471 3.40164,-51.786 -3.14597,-103.7384 -13.61821,-154.0398 8.82684,1.265 17.70835,-5.2522 26.48866,-6.6504 60.95047,-10.4664 114.40452,-32.9901 175.57012,-41.9251 20.02779,-6.264 21.44399,5.4165 26.58979,10.5716 z m -427.38826,23.974 c 50.00183,0.088 99.98505,1.4897 149.64905,8.3432 9.82696,2.3703 20.67675,3.0962 29.08492,10.0004 6.60558,10.9857 9.90256,24.1485 12.36802,37.0651 9.86768,60.7411 3.76216,123.6926 -8.95476,183.2884 -3.02949,11.7049 -5.18695,24.5741 -12.04821,34.1816 -12.98439,3.2225 -26.63108,0.7595 -39.85388,1.3919 -100.11298,-5.879 -200.27828,-13.5756 -299.86212,-26.7652 -10.35611,-6.3983 -4.21518,-25.1746 -2.4068,-35.7142 80.9533,16.665 162.56366,32.6776 245.01717,33.8094 24.67791,-1.6845 52.99062,-0.033 73.57435,-18.3628 19.39808,-22.1446 22.88695,-55.4007 23.01487,-85.2292 -0.88384,-34.7549 -6.44858,-69.4298 -16.5721,-102.2073 -2.43058,-11.212 -15.46788,-9.2539 -23.20735,-11.3911 -102.10745,-9.9804 -204.76148,-3.5885 -307.06663,-5.8456 -9.19897,-0.6924 -8.30349,-13.7488 -3.86682,-19.8541 30.38801,-1.1586 60.77603,-1.7979 91.17567,-2.3438 29.94725,0 59.95613,-0.42 89.95456,-0.3672 z m 46.52285,37.7843 c 27.84928,0.077 55.67066,1.0028 83.35479,4.5149 15.33356,0.8256 16.71748,22.9309 19.00269,36.1737 3.75634,38.2636 2.20362,78.1917 -9.43156,114.6643 -4.8786,13.569 -12.03659,30.1215 -26.51538,31.533 -29.7949,4.4808 -59.95033,0.206 -89.69871,-2.9899 -56.5138,-6.9376 -115.28572,-11.8725 -171.22967,-23.2578 4.09361,-7.67 10.92796,-20.8182 12.59098,-29.72 22.77648,3.9749 45.12266,12.3107 68.3236,13.0298 1.12226,-1.052 5.46589,0.9321 5.3496,-1.8643 -24.07899,-5.2664 -49.37544,-14.3482 -74.04171,-14.9541 -1.63174,-32.4915 -1.3807,-48.9029 -5.47533,-72.439 40.20916,11.2654 81.96505,2.7365 122.73826,8.0229 2.96553,2.3969 4.3084,-1.145 1.6336,-1.4512 -40.97672,-12.2641 -83.9479,-1.6918 -125.38399,-9.9944 -5.33214,-16.6051 -12.80937,-32.4504 -19.93827,-47.8771 41.73263,-0.3529 83.45364,-2.5306 125.19791,-2.8036 27.79753,0.1099 55.67472,-0.6633 83.52342,-0.5867 z m -129.49504,88.7446 c -4.29665,0.013 -8.57621,0.1757 -12.78145,0.3537 -10.69919,1.7844 -24.53254,-0.046 -33.43495,4.9405 27.81206,3.1492 56.0079,-0.6725 83.8316,2.3636 -11.67897,-6.3717 -24.725,-7.6947 -37.6152,-7.6581 z m 525.87775,93.898 c -12.0483,7.184 -25.05006,11.9385 -37.78436,17.2383 -72.58,28.1967 -148.82264,61.0451 -222.84473,83.7629 -5.30889,0.1731 -10.19984,-2.6215 -14.904,-6.4366 1.4096,-22.006 -2.57073,-19.5649 20.56005,-28.8404 50.66588,-29.392 161.33433,-73.7353 241.05474,-103.4899 20.2986,-9.2408 15.6359,36.7706 13.9183,37.7657 z m -30.27226,33.1636 c -8.1232,40.7737 15.24686,77.679 34.79026,108.5323 -99.87446,39.7949 -198.54422,93.9054 -298.43042,133.5806 -7.0824,-44.9483 -1.42579,-117.5874 20.71688,-157.1493 80.5637,-31.3393 161.36578,-53.6377 242.04008,-84.6507 0.2209,-0.08 0.6621,-0.2332 0.8831,-0.3131 z m -553.20606,15.0471 c 99.18842,-0.2131 197.98726,13.1502 296.62329,23.8296 2.5585,7.2574 5.05851,15.9387 2.68026,23.7086 -2.75039,6.7046 -9.92582,4.3876 -14.96141,3.8616 -88.63461,-11.0656 -177.35645,-23.036 -266.5202,-26.2585 -6.90796,0.5993 -14.04268,0.093 -20.7006,2.6299 -12.45525,12.0178 -16.86867,31.2394 -19.08991,48.9564 -2.42476,22.544 -2.88377,46.8458 5.63487,67.8784 9.14664,8.6687 20.68257,12.8634 31.5562,17.8435 80.98818,33.1835 168.26527,61.6291 251.37585,86.6565 0.0639,11.079 0.15833,29.4617 -1.14418,39.482 -74.09627,-14.3222 -73.85566,-19.0366 -163.26229,-54.3478 -54.86304,-35.1806 -130.32694,-30.1018 -143.21037,-82.9205 -4.62856,-38.1504 5.20524,-78.5543 9.59539,-116.7047 1.93632,-10.5263 3.15724,-22.0181 9.43738,-30.4804 6.67536,-3.9814 14.69393,-3.0766 21.93333,-4.2018 z m 14.5852,43.0068 c 7.43361,0.056 14.86664,0.8913 22.28047,1.4356 85.64582,8.489 171.02997,20.048 256.43157,31.1868 -2.38987,8.5889 -4.75632,17.2583 -7.0824,25.8937 -47.68115,-13.9219 -97.75799,-12.3972 -146.61373,-9.6208 -1.44788,0.972 -5.18027,-0.8922 -5.65126,1.831 43.76781,3.2957 87.79147,0.7787 131.43717,6.6111 6.78002,1.4781 13.62983,3.4216 20.5843,2.1234 -8.54191,38.4433 -14.0828,78.6244 -9.42517,118.2463 -65.98607,-15.0938 -131.85583,-31.073 -197.13249,-49.8685 -21.10182,-6.6514 -42.48275,-12.5904 -62.84028,-21.9382 -5.94269,-2.7697 -12.98438,-6.132 -14.29271,-14.2482 -5.86129,-24.5214 -8.13545,-50.8998 -3.94858,-75.9945 1.48277,-5.6127 2.98315,-14.0218 8.82101,-15.4133 2.4771,-0.1948 4.95506,-0.2631 7.43303,-0.2445 z m 513.48536,28.2812 c -62.9275,35.7003 -132.98395,48.2973 -198.83046,74.6563 -2.54105,0.7324 -9.82173,5.1868 -2.8147,2.9098 65.66626,-20.6599 135.04236,-32.8574 195.08576,-71.6935 1.349,-0.8989 8.4081,-5.9592 6.559,-5.8726 z m 84.80256,25.9662 c 10.5422,-0.073 6.6515,20.7531 0.8659,26.3325 -111.32386,52.1189 -217.6125,114.1651 -329.04103,165.9711 -8.75124,1.9708 -4.41317,-33.6993 -2.30241,-37.834 77.84084,-35.2508 129.7059,-62.6048 143.95449,-65.5169 62.48455,-33.397 95.19931,-54.9888 186.52235,-88.9527 z m -418.72187,20.8929 c -0.67451,2.3236 2.77383,1.7843 4.05308,2.6632 24.74768,6.2119 49.37848,17.1843 75.06292,15.7262 4.14595,-0.4661 -2.27938,-3.0554 -3.45978,-2.6559 -25.29427,-4.614 -49.83204,-15.7802 -75.65604,-15.7335 z m 243.99377,20.5346 c -1.5126,0 -3.63028,0.3348 -4.23211,0.4713 -45.59365,6.0522 -91.08845,19.5087 -131.74535,44.2964 -4.30293,3.369 2.11111,1.2644 3.62877,0.3257 43.02351,-19.3149 87.89613,-32.1848 132.94901,-43.5235 1.82002,-1.2251 0.91292,-1.5673 -0.59962,-1.5698 z m -249.31429,10.3053 c -1.76187,1.6778 3.59901,2.8234 4.62822,3.8221 24.16039,9.8472 50.40305,17.9168 76.17936,14.0152 -26.20137,-6.2053 -54.0774,-11.4258 -80.80792,-17.8376 z"
           sodipodi:nodetypes="cccccccccccccccccccccccccccccccccccccccccccccccccccccccccccccccccccccccccccccccccccccccccccccccccccccccccccccccccccccccccccccccccccccccccccccccccccccccccccccccccccccccsccccsscccccccccccccccccccccccccccccccccccccccscccccsscccsssccccssccccc"
           style="fill:#1a1a1a;fill-opacity:0.999634;stroke:none;stroke-width:0.622213"
           transform="matrix(4.042181,-0.21186553,2.3635459,2.6062331,-8879.3252,-3130.1725)" />
        <g
           aria-label="TEKST"
           transform="matrix(1.9124357,-0.10023776,1.3302861,1.4668788,-4899.1237,-2099.9913)"
           id="text6776"
           style="font-size:266.667px;shape-inside:url(#rect6778);stroke:none;fill:#1a1a1a;fill-opacity:0.99963403"
           inkscape:path-effect="#path-effect19147" />
      </g>
      <path
         style="fill:#d3d3d3;fill-opacity:1;fill-rule:evenodd;stroke:#000000;stroke-width:0;stroke-linejoin:round;stroke-miterlimit:4;stroke-dasharray:none;stroke-opacity:1"
         d="m 397.66361,476.33066 c -112.1993,0.55009 -224.4398,-0.0822 -336.592857,3.6211 -9.397132,9.54887 -14.477361,28.65826 -2.53143,38.95087 7.375825,10.76944 22.571394,3.44164 33.501759,5.59283 179.458388,0.79227 359.017318,-1.67881 538.395158,3.29377 47.73547,2.24794 95.84452,3.76411 142.88852,11.78343 11.22833,1.42007 16.96626,11.49154 19.45926,21.53549 25.90443,78.11865 41.22575,161.81243 27.15538,243.50167 -7.32611,38.77832 -25.78733,79.93203 -63.5532,97.46214 -43.99175,20.09071 -93.9813,18.50467 -141.28314,20.11055 -172.39653,-1.0503 -343.00531,-29.85407 -512.8827,-57.39754 -7.356073,0.67338 -17.771171,-6.23726 -23.418931,-0.0663 -4.585195,19.38539 -12.910725,41.68558 -2.401103,60.55801 7.521056,11.97401 24.446604,7.91642 36.228374,11.12267 208.72007,22.39766 418.30472,36.04824 627.94284,46.10075 29.98449,-0.15343 60.36777,1.62999 90.09679,-2.47901 14.7137,-10.12788 18.17642,-29.87781 24.35706,-45.57504 C 884.57966,833.39929 898.26047,726.60858 887.33162,621.5656 882.3295,583.29734 875.27807,543.10329 852.79454,510.85844 831.9517,495.35903 804.33592,494.59601 779.62946,490.16225 652.93383,474.55659 525.05443,476.32171 397.66361,476.33066 Z"
         id="path27349"
         transform="matrix(3.0316359,-0.15889915,1.7726595,1.9546748,-6882.6486,-1079.8699)" />
      <path
         style="fill:#d3d3d3;fill-opacity:1;fill-rule:evenodd;stroke:#000000;stroke-width:0;stroke-linejoin:round;stroke-miterlimit:4;stroke-dasharray:none;stroke-opacity:1"
         d="m 1359.8445,408.86286 c -94.569,10.64691 -186.9689,34.00657 -279.6369,54.865 -46.617,11.3534 -94.02078,18.82926 -141.05824,28.02077 -15.23267,4.54658 -30.82586,7.86469 -46.22211,10.86685 -6.60916,5.58192 1.74191,15.12745 1.46636,22.26235 23.83723,104.99615 38.592,214.77547 15.941,321.22534 -9.28641,44.07091 -28.68327,86.59465 -57.38448,121.77455 -3.5621,8.42468 8.46467,6.76351 12.67033,4.04899 133.18384,-44.60947 265.44304,-92.03559 396.91984,-141.44923 47.1492,-19.19371 96.6835,-34.47468 139.6576,-62.40048 17.311,-57.80526 26.0198,-118.64901 28.4594,-179.10447 0.5887,-46.43924 1.0589,-95.94112 -21.493,-137.97192 -11.8964,-17.0979 -25.7201,-41.50347 -49.3198,-42.13775 z"
         id="path27425"
         transform="matrix(3.0316359,-0.15889915,1.7726595,1.9546748,-6882.6486,-1079.8699)" />
    </g>
  </g>
</svg>
