<?xml version="1.0" encoding="UTF-8" standalone="no"?>
<svg
   id="svg2"
   height="1153.8583pt"
   width="1153.8583pt"
   version="1.1"
   viewBox="0 0 1153.8583 1153.8583"
   sodipodi:docname="tekst-logo.svg"
   inkscape:export-filename="/home/bkis/bitmap.png"
   inkscape:export-xdpi="86.723602"
   inkscape:export-ydpi="86.723602"
   inkscape:version="1.1.2 (0a00cf5339, 2022-02-04)"
   xmlns:inkscape="http://www.inkscape.org/namespaces/inkscape"
   xmlns:sodipodi="http://sodipodi.sourceforge.net/DTD/sodipodi-0.dtd"
   xmlns="http://www.w3.org/2000/svg"
   xmlns:svg="http://www.w3.org/2000/svg">
  <defs
     id="defs6">
    <inkscape:path-effect
       effect="envelope"
       id="path-effect19147"
       is_visible="true"
       lpeversion="1"
       yy="true"
       xx="true"
       bendpath1="m 154.54322,1461.3443 c 113.15097,-25.8904 277.97652,-56.2729 455.93739,-87.7973"
       bendpath2="m 607.61159,1380.8006 c 38.82544,122.1819 45.77057,183.467 19.4269,291.9107"
       bendpath3="m 130.9246,1855.6658 c 157.71113,-45.5291 314.48652,-97.7589 468.7311,-168.1115"
       bendpath4="m 156.23458,1462.8337 c 39.93894,172.2953 14.30611,283.4433 -32.23502,406.1321"
       bendpath1-nodetypes="cc"
       bendpath3-nodetypes="cc"
       bendpath4-nodetypes="cc"
       bendpath2-nodetypes="cc" />
    <rect
       x="20.772636"
       y="1451.3612"
       width="1274.042"
       height="565.30304"
       id="rect6778" />
    <rect
       x="54.098156"
       y="1537.3148"
       width="421.13599"
       height="254.23276"
       id="rect2526" />
    <inkscape:path-effect
       effect="perspective-envelope"
       up_left_point="0,0"
       up_right_point="0,0"
       down_left_point="0,0"
       down_right_point="0,0"
       id="path-effect873"
       is_visible="true"
       lpeversion="0"
       deform_type="perspective"
       horizontal_mirror="false"
       vertical_mirror="false"
       overflow_perspective="false" />
    <rect
       x="-633.40753"
       y="1336.0967"
       width="887.91437"
       height="582.73712"
       id="rect18707" />
    <rect
       x="985.94543"
       y="1947.8601"
       width="494.15033"
       height="230.80635"
       id="rect6979" />
  </defs>
  <sodipodi:namedview
     id="namedview4"
     pagecolor="#ffffff"
     bordercolor="#666666"
     borderopacity="1.0"
     inkscape:pageshadow="2"
     inkscape:pageopacity="0.0"
     inkscape:pagecheckerboard="true"
     inkscape:document-units="pt"
     showgrid="false"
     inkscape:snap-nodes="false"
     inkscape:snap-others="false"
     inkscape:snap-global="false"
     fit-margin-top="10"
     fit-margin-left="10"
     fit-margin-right="10"
     fit-margin-bottom="10"
     lock-margins="true"
     inkscape:zoom="0.39054772"
     inkscape:cx="771.99273"
     inkscape:cy="809.12008"
     inkscape:window-width="1920"
     inkscape:window-height="1043"
     inkscape:window-x="0"
     inkscape:window-y="0"
     inkscape:window-maximized="1"
     inkscape:current-layer="g39282" />
  <text
     xml:space="preserve"
     transform="matrix(0.75,0,0,0.75,-32.423975,-789.32777)"
     id="text6977"
     style="font-style:normal;font-weight:normal;font-size:192px;line-height:1.25;font-family:sans-serif;white-space:pre;shape-inside:url(#rect6979);fill:#000000;fill-opacity:1;stroke:none"><tspan
       x="985.94531"
       y="2348.541"
       id="tspan24343"><tspan
         dx="0 117.28125 121.3125 125.90625 121.875"
         id="tspan24341">TEKST</tspan></tspan></text>
  <g
     aria-label="TEKST"
     transform="matrix(0.26096961,-0.00365865,-0.16692543,0.3933369,1181.0995,-16.31813)"
     id="text18705"
     style="font-size:400px;line-height:1.25;white-space:pre;shape-inside:url(#rect18707)">
    <g
       id="g39282"
       transform="matrix(0.94177725,0.05756889,-0.22638941,0.92911859,1711.2454,1398.9392)"
       inkscape:transform-center-x="67.755077"
       inkscape:transform-center-y="-67.734679">
      <text
         xml:space="preserve"
         transform="matrix(3.0316359,-0.15889915,1.7726595,1.9546748,-8879.3252,-3130.1725)"
         id="text2524"
         style="font-style:normal;font-weight:normal;font-size:266.667px;line-height:1.25;font-family:sans-serif;white-space:pre;shape-inside:url(#rect2526);fill:#000000;fill-opacity:1;stroke:none"><tspan
           x="54.097656"
           y="2027.4847"
           id="tspan24347"><tspan
             dx="0 162.89082 168.48979 174.87 169.27106"
             id="tspan24345">TEKST</tspan></tspan></text>
      <g
         id="g24031"
         transform="matrix(1.6285277,-0.01372354,-0.2374501,1.379142,1188.6203,-275.23619)"
         style="stroke:none;fill:#26231f;fill-opacity:0.99926805"
         inkscape:export-filename="/home/bkis/Code/Tekst/assets/logo-light.png"
         inkscape:export-xdpi="32.512001"
         inkscape:export-ydpi="32.512001">
        <path
           id="path4"
           fill="#26231f"
           d="m 514.90034,1035.7329 c -32.33015,6.3783 -64.79985,12.9697 -96.1066,24.4215 -7.53594,3.4489 -16.90355,5.7729 -21.15415,14.4419 -7.83832,27.2446 -5.77477,56.5125 -4.93162,84.7166 2.03516,25.5135 2.93663,52.7987 14.14152,75.6284 2.57595,7.417 12.00752,3.7944 15.14749,7.3498 -8.19883,3.522 -21.14775,-3.8348 -28.98025,4.1414 -6.3323,9.3546 -4.64635,22.4715 -1.76804,33.0311 1.96539,9.3146 11.86272,5.8584 17.64261,8.4816 7.8325,40.4075 14.20491,81.6805 12.97218,123.2399 -0.88385,13.0563 -1.61651,26.7385 -6.48347,38.7963 -7.40803,-0.6259 -17.16464,-3.2825 -21.31639,6.092 -7.70458,15.6131 -9.38563,34.8613 -6.94342,52.3453 1.40718,9.9071 15.72373,6.5051 17.14835,13.7955 -12.76343,36.0797 -23.81151,73.4845 -27.47481,112.3939 -1.52347,20.3934 -1.16895,42.4042 7.6348,60.8269 6.6928,14.0484 19.81617,21.333 31.80042,28.1907 39.77305,21.0992 81.5464,36.6856 123.22089,51.9991 59.53166,20.247 120.20884,41.8856 181.59541,49.3026 72.56258,-32.1383 144.82279,-65.2819 215.90838,-101.5481 33.3303,-17.2509 66.67796,-34.7215 98.26966,-55.9273 10.9608,-8.0961 23.6318,-15.2268 30.5223,-28.4164 2.4655,-13.8952 2.5058,-32.9179 -9.0658,-41.6398 -7.3963,0.8788 -14.3386,6.8717 -21.9269,6.8318 -12.5541,-22.7305 -23.8121,-46.72 -31.2899,-72.2994 -3.51206,-12.5104 -5.82576,-26.0928 -2.7266,-39.0493 10.2631,-6.8977 23.6888,-8.5689 31.754,-19.0752 3.4306,-18.8488 5.2568,-39.6145 -0.8487,-57.9507 -2.4306,-6.9243 -8.8966,-3.5891 -13.5775,-3.1229 19.4097,-49.6955 18.8573,-107.1675 11.2225,-160.0521 -4.2971,-18.5092 -7.5476,-40.1272 -21.5844,-52.5377 -14.76956,-5.8857 -30.72006,-0.752 -45.90236,-0.672 3.3551,-17.3841 -18.4148,-14.5818 -20.4326,-29.2028 -5.0472,-26.4123 -3.8088,-53.876 -1.3783,-80.5886 1.5061,-10.726 2.1397,-24.1219 11.5308,-30.0409 7.3963,-8.6488 10.0537,-26.6321 0.6396,-34.3421 -13.438,-3.2225 -27.7249,-3.7823 -40.9942,-6.6986 -274.91861,-24.94438 -49.50616,-42.90548 -396.2649,17.1376 z m 221.55158,-24.5984 c 0.91361,-0.01 1.82764,-0.01 2.74201,0.013 1.62814,7.7433 5.53549,20.4328 -1.95975,25.6593 -91.08263,11.4452 -182.85141,18.4101 -272.99205,38.1111 -11.89121,3.5821 -25.05527,5.0329 -35.05669,13.8081 -7.05332,13.7355 -8.24593,30.1016 -10.21132,45.5615 -2.03518,25.1207 -3.70419,51.3732 3.24446,75.7349 2.85506,10.2799 13.90953,7.2233 20.98029,8.668 103.19481,3.9416 206.56988,3.1967 309.78794,2.5509 3.50323,11.3841 3.98488,16.8223 1.00596,23.469 -106.39294,-1.558 -212.85564,-0.8131 -319.11484,-7.8106 -7.37895,-1.3582 -17.47863,0.4136 -20.98494,-9.3338 -6.16366,-15.6464 -7.00739,-33.1237 -8.68204,-49.9484 -1.55836,-29.9145 -2.96553,-60.3949 2.12239,-89.9632 1.3781,-10.7993 12.79309,-11.6575 19.81734,-15.2528 63.4043,-20.5134 128.76819,-31.4392 193.63781,-43.9429 35.75505,-6.0987 71.49266,-12.531 107.45123,-16.9187 2.73439,-0.2446 5.47152,-0.38 8.21278,-0.4047 z m 21.7647,6.5958 c 0.61747,0.022 1.24867,0.156 1.88794,0.4139 61.93898,2.0574 123.61628,10.9591 185.13088,19.2284 1.0873,7.4303 1.663,16.0325 -2.4132,22.4707 -10.0421,2.2971 -20.3634,1.2649 -30.4985,0.5192 -52.5772,-4.2678 -104.66014,-13.842 -157.00474,-20.5932 -12.64713,2.016 -6.36427,-22.383 2.89831,-22.0394 z m -20.54011,34.7561 c -2.38406,17.6238 -4.08232,35.3873 -4.7045,53.2175 -34.37695,-1.7178 -67.68398,9.9138 -101.78182,12.5304 -2.80272,-0.033 1.24419,3.6288 2.34318,1.8445 33.44077,3.2691 66.0384,-8.4956 99.09539,-12.1843 -0.56403,16.8715 0.17991,33.7363 1.51731,50.5344 -14.57182,-0.9854 -28.92327,3.2759 -43.48928,2.5436 -2.64573,-3.3157 -3.91846,2.0966 -1.84259,2.1899 14.90327,6.2785 30.93984,1.8775 46.00011,-1.2651 2.25031,14.5278 5.76842,29.2028 13.29839,41.3536 -78.65646,2.9295 -159.80746,2.5301 -239.41173,2.4635 -24.64883,-1.4048 -49.66399,-0.3264 -73.97556,-5.8726 -6.30903,-0.9321 -5.20952,-10.1861 -6.38986,-15.3527 -2.27938,-25.1406 -3.58207,-52.312 6.03574,-75.7815 4.69253,-11.6582 17.10067,-10.5662 26.31709,-13.1629 91.00122,-16.6184 182.50834,-29.2946 273.90496,-42.6173 0.76755,-0.093 2.303,-0.2933 3.07637,-0.3932 z m 51.84977,18.2762 c 40.11264,-0.087 80.26133,0.4162 120.29026,3.7951 7.5243,0.9188 15.3685,1.5251 22.3578,5.0539 2.7504,3.5953 -3.2211,6.5314 -3.6688,10.3199 -6.0125,29.1954 1.4188,59.0765 6.2509,87.7859 -56.35098,4.5807 -113.26019,8.3425 -168.30284,23.8889 -13.42051,-10.7261 -18.97884,-29.967 -21.26405,-47.7439 -3.36094,-27.4111 -1.50074,-55.448 3.36623,-82.4729 7.91972,-0.5459 15.86271,0.1262 23.78243,-0.5596 5.72825,-0.03 11.45801,-0.054 17.18789,-0.067 z m -80.93585,60.2897 c -2.20695,0.029 -4.39545,0.1889 -6.51371,0.4119 -13.29258,1.558 -26.27057,5.4527 -39.51663,7.3105 -1.44789,0.739 0.52281,1.8443 1.30198,1.7977 20.20635,3.2557 40.07543,-7.3298 60.2527,-3.0555 1.4944,0.1798 6.00143,0.9848 3.39618,-1.2722 -5.51677,-4.1746 -12.3,-5.2778 -18.9207,-5.1922 z m 232.70731,62.2484 c 4.606,0.1399 7.5766,7.3631 10.2148,10.3033 -58.8979,14.6276 -118.79586,27.477 -177.45531,43.8823 -6.50092,-5.7925 -5.81536,-18.9754 -5.385,-26.965 56.53705,-13.6089 114.41731,-18.6424 171.68121,-27.1513 0.322,-0.057 0.6369,-0.079 0.944,-0.07 z m 55.8765,30.0537 c 3.62406,-0.029 7.10506,0.6466 9.91066,3.5661 13.8508,19.8276 14.641,46.5395 15.3911,70.7614 -0.2908,37.0585 -4.3782,74.2835 -12.7978,110.0703 -15.15906,12.9764 -33.79536,19.4879 -50.95476,28.2965 -65.422,30.3738 -131.76281,58.1704 -198.28383,85.1626 21.14834,-28.2632 29.25413,-65.8543 31.61493,-102.2471 3.40164,-51.786 -3.14597,-103.7384 -13.61821,-154.0398 8.82684,1.265 17.73507,0.4463 26.51538,-0.9519 60.95047,-10.4664 120.28443,-31.0203 181.45003,-39.9553 3.3813,0.1 7.1487,-0.6336 10.773,-0.6627 z m -417.4776,27.5401 c 50.00183,0.088 99.98505,1.4897 149.64905,8.3432 9.82696,2.3703 20.67675,3.0962 29.08492,10.0004 6.60558,10.9857 9.90256,24.1485 12.36802,37.0651 9.86768,60.7411 3.76216,123.6926 -8.95476,183.2884 -3.02949,11.7049 -5.18695,24.5741 -12.04821,34.1816 -12.98439,3.2225 -26.63108,0.7595 -39.85388,1.3919 -100.11298,-5.879 -200.27828,-13.5756 -299.86212,-26.7652 -10.35611,-6.3983 -4.21518,-25.1746 -2.4068,-35.7142 80.9533,16.665 162.56366,32.6776 245.01717,33.8094 24.67791,-1.6845 52.99062,-0.033 73.57435,-18.3628 19.39808,-22.1446 22.88695,-55.4007 23.01487,-85.2292 -0.88384,-34.7549 -6.44858,-69.4298 -16.5721,-102.2073 -2.43058,-11.212 -15.46788,-9.2539 -23.20735,-11.3911 -102.10745,-9.9804 -204.76148,-3.5885 -307.06663,-5.8456 -9.19897,-0.6924 -8.30349,-13.7488 -3.86682,-19.8541 30.38801,-1.1586 60.77603,-1.7979 91.17567,-2.3438 29.94725,0 59.95613,-0.42 89.95456,-0.3672 z m 46.52285,37.7843 c 27.84928,0.077 55.67066,1.0028 83.35479,4.5149 15.33356,0.8256 16.71748,22.9309 19.00269,36.1737 3.75634,38.2636 2.20362,78.1917 -9.43156,114.6643 -4.8786,13.569 -12.03659,30.1215 -26.51538,31.533 -29.7949,4.4808 -59.95033,0.206 -89.69871,-2.9899 -56.5138,-6.9376 -112.67871,-17.1909 -168.62266,-28.5762 4.09361,-7.67 8.32095,-15.4998 9.98397,-24.4016 22.77648,3.9749 45.12266,12.3107 68.3236,13.0298 1.12226,-1.052 5.46589,0.9321 5.3496,-1.8643 -24.07899,-5.2664 -47.88467,-13.4758 -72.55094,-14.0817 3.9773,-24.6547 0.3665,-49.9211 -6.9661,-73.3114 40.20916,11.2654 81.96505,2.7365 122.73826,8.0229 2.96553,2.3969 4.3084,-1.145 1.6336,-1.4512 -40.97672,-12.2641 -83.9479,-1.6918 -125.38399,-9.9944 -5.33214,-16.6051 -12.80937,-32.4504 -19.93827,-47.8771 41.73263,-0.3529 83.45364,-2.5306 125.19791,-2.8036 27.79753,0.1099 55.67472,-0.6633 83.52342,-0.5867 z m -129.49504,88.7446 c -4.29665,0.013 -8.57621,0.1757 -12.78145,0.3537 -10.69919,1.7844 -24.53254,-0.046 -33.43495,4.9405 27.81206,3.1492 56.0079,-0.6725 83.8316,2.3636 -11.67897,-6.3717 -24.725,-7.6947 -37.6152,-7.6581 z m 519.97455,76.7736 c 6.8179,0.2528 13.5892,13.2794 5.9032,17.1244 -12.0483,7.184 -25.05006,11.9385 -37.78436,17.2383 -72.58,28.1967 -146.27068,52.5976 -220.29277,75.3154 -5.30889,0.1731 -12.7518,5.826 -17.45596,2.0109 7.78599,-9.3278 19.56091,-13.8686 30.05076,-18.8621 78.40642,-34.1689 158.49917,-62.9449 238.21963,-92.6995 0.4507,-0.1033 0.9056,-0.1438 1.3601,-0.127 z m -24.36906,50.288 c -8.1232,40.7737 15.24686,77.679 34.79026,108.5323 -99.87446,39.7949 -199.45831,80.735 -299.34451,120.4102 -7.0824,-44.9483 -0.5117,-96.1085 21.63097,-135.6704 80.5637,-31.3393 161.36578,-61.9462 242.04008,-92.9592 0.2209,-0.08 0.6621,-0.2332 0.8831,-0.3131 z m -553.20606,15.0471 c 99.18842,-0.2131 197.98726,13.1502 296.62329,23.8296 2.5585,7.2574 5.05851,15.9387 2.68026,23.7086 -2.75039,6.7046 -9.92582,4.3876 -14.96141,3.8616 -88.63461,-11.0656 -177.35645,-23.036 -266.5202,-26.2585 -6.90796,0.5993 -14.04268,0.093 -20.7006,2.6299 -12.45525,12.0178 -16.86867,31.2394 -19.08991,48.9564 -2.42476,22.544 -2.88377,46.8458 5.63487,67.8784 9.14664,8.6687 20.68257,12.8634 31.5562,17.8435 80.98818,33.1835 164.61045,57.0326 247.72103,82.06 0.0639,11.079 0.95996,24.1081 -0.34255,34.1284 -68.82949,-22.4975 -137.21705,-47.1914 -205.34877,-72.4325 -25.92808,-10.5863 -52.46148,-19.6678 -77.37139,-33.2369 -8.21628,-3.5288 -8.96638,-14.9805 -10.65267,-23.2364 -4.62856,-38.1504 -5.0414,-76.9667 -0.65125,-115.1171 1.93632,-10.5263 3.15724,-22.0181 9.43738,-30.4804 6.67536,-3.9814 14.69393,-3.0766 21.93333,-4.2018 z m 14.5852,43.0068 c 7.43361,0.056 14.86664,0.8913 22.28047,1.4356 85.64582,8.489 171.02997,20.048 256.43157,31.1868 -2.38987,8.5889 -4.75632,17.2583 -7.0824,25.8937 -47.68115,-13.9219 -97.75799,-12.3972 -146.61373,-9.6208 -1.44788,0.972 -5.18027,-0.8922 -5.65126,1.831 43.76781,3.2957 87.79147,0.7787 131.43717,6.6111 6.78002,1.4781 13.62983,3.4216 20.5843,2.1234 -8.54191,38.4433 -14.0828,78.6244 -9.42517,118.2463 -65.98607,-15.0938 -131.85583,-31.073 -197.13249,-49.8685 -21.10182,-6.6514 -42.48275,-12.5904 -62.84028,-21.9382 -5.94269,-2.7697 -12.98438,-6.132 -14.29271,-14.2482 -5.86129,-24.5214 -8.13545,-50.8998 -3.94858,-75.9945 1.48277,-5.6127 2.98315,-14.0218 8.82101,-15.4133 2.4771,-0.1948 4.95506,-0.2631 7.43303,-0.2445 z m 513.48536,28.2812 c -62.9275,35.7003 -132.98395,48.2973 -198.83046,74.6563 -2.54105,0.7324 -9.82173,5.1868 -2.8147,2.9098 65.66626,-20.6599 135.04236,-32.8574 195.08576,-71.6935 1.349,-0.8989 8.4081,-5.9592 6.559,-5.8726 z m 84.80256,25.9662 c 10.5422,-0.073 6.6515,20.7531 0.8659,26.3325 -111.32386,52.1189 -223.01401,103.2325 -334.44254,155.0385 -8.75124,1.9708 0.98834,-11.7913 3.0991,-15.926 47.32064,-13.4425 92.44329,-36.2063 137.0368,-58.7436 65.46278,-33.1902 129.14038,-70.8612 193.44004,-106.7014 z m -418.72187,20.8929 c -0.67451,2.3236 2.77383,1.7843 4.05308,2.6632 24.74768,6.2119 49.37848,17.1843 75.06292,15.7262 4.14595,-0.4661 -2.27938,-3.0554 -3.45978,-2.6559 -25.29427,-4.614 -49.83204,-15.7802 -75.65604,-15.7335 z m 243.99377,20.5346 c -1.5126,0 -3.63028,0.3348 -4.23211,0.4713 -45.59365,6.0522 -91.08845,19.5087 -131.74535,44.2964 -4.30293,3.369 2.11111,1.2644 3.62877,0.3257 43.02351,-19.3149 87.89613,-32.1848 132.94901,-43.5235 1.82002,-1.2251 0.91292,-1.5673 -0.59962,-1.5698 z m -249.31429,10.3053 c -1.76187,1.6778 3.59901,2.8234 4.62822,3.8221 24.16039,9.8472 50.40305,17.9168 76.17936,14.0152 -26.20137,-6.2053 -54.0774,-11.4258 -80.80792,-17.8376 z"
           sodipodi:nodetypes="ccccccccccccccccccccccccccccccccccccccccccccccccccccccccccccccccccccccccccccccccccccccccccccccccccccccccccccccccccccccccccccccccccccccccccccccccccccccccccccccccccccccccccccccsccccssccccccccccccccccccccccccccccccccccccccccscccccsscccsssccccssccccc"
           style="stroke-width:0.622213;stroke:none;fill:#26231f;fill-opacity:0.99926805"
           transform="matrix(4.042181,-0.21186553,2.3635459,2.6062331,-8879.3252,-3130.1725)" />
        <g
           aria-label="TEKST"
           transform="matrix(1.9124357,-0.10023776,1.3302861,1.4668788,-4899.1237,-2099.9913)"
           id="text6776"
           style="font-size:266.667px;shape-inside:url(#rect6778);stroke:none;fill:#26231f;fill-opacity:0.99926805"
           inkscape:path-effect="#path-effect19147">
          <path
             d="m 194.36241,1486.2767 c -4.25586,-7.8947 -7.79914,-8.4737 -10.85547,-4.7904 -3.06096,3.689 -5.44929,11.47 -7.29481,20.4328 -1.86101,9.0381 -3.1092,18.8659 -4.32349,27.0689 -1.20031,8.1087 -2.32607,14.266 -3.77749,15.5149 -6.68869,-26.8605 -8.8571,-49.8724 -6.3712,-66.453 2.40507,-16.0415 8.81615,-23.2926 15.52019,-14.6746 21.29547,-3.6606 43.30601,-8.412 64.47622,-13.1791 0.88102,6.3357 1.8759,20.0787 2.73892,32.0572 0.91749,12.7344 1.86944,26.551 2.20298,36.7341 0.33675,10.2814 0.0505,17.2229 -1.20303,16.7604 -1.25347,-0.4626 -3.54133,-8.3392 -7.00256,-27.678 -4.47286,-18.876 -8.53546,-28.2746 -12.35366,-30.8071 -3.787,-2.5118 -7.36568,1.8141 -9.85127,10.5811 -2.52708,8.9135 -3.77688,21.782 -3.48872,37.164 0.2853,15.2294 2.06955,32.5272 5.00322,49.483 0,0 0,0 0,0 0.10188,0.5925 0.20526,1.1844 0.31012,1.7756 0,0 0,10e-5 0,10e-5 0.76924,4.3629 1.61801,8.7035 2.54078,12.9425 1.99008,28.6338 1.88401,55.0459 -1.10553,81.6565 0,0 0,0 0,0 -0.23813,2.1674 -0.49309,4.3315 -0.76477,6.4938 0,0 0,0 0,0 -3.51294,27.511 -9.3259,52.0964 -15.94098,77.5826 -0.69241,2.6953 -1.38878,5.377 -2.0887,8.0601 -3.74749,14.3504 -7.50797,28.6403 -10.48853,42.6058 5.08496,4.8059 5.12183,15.0449 2.85453,22.8807 -2.24476,7.7578 -7.13838,13.7616 -12.27255,9.3568 -9.24853,3.0554 -18.55167,6.0683 -27.79924,8.9729 6.81411,-7.8754 12.45629,-19.3877 17.81075,-32.947 5.14501,-13.0288 10.82711,-30.1393 15.66766,-46.7207 0.79117,-2.7127 1.57138,-5.4573 2.33644,-8.226 7.3515,-26.3943 12.49761,-51.435 15.8819,-78.7476 0.27117,-2.2166 0.52647,-4.4113 0.76837,-6.5882 0.81295,-7.1934 1.44978,-14.0682 2.01939,-20.7637 1.38667,-24.5913 0.43931,-48.8785 -1.99814,-74.5873 -0.0572,-0.5986 -0.11499,-1.1974 -0.1735,-1.7962 -2.97557,-30.1285 -7.88605,-60.3125 -10.97786,-90.1649 0,0 3e-5,0 3e-5,0 z"
             style="font-family:FreeSerif;-inkscape-font-specification:FreeSerif;stroke:none;fill:#26231f;fill-opacity:0.99926805"
             id="path11612"
             inkscape:original-d="m 87.97352,1532.6948 c -24.860621,-14.8728 -50.685485,21.6162 -63.020626,23.6309 -9.384315,-23.2946 14.10248,-43.585 36.142022,-34.831 38.559571,0 77.119144,0 115.678714,0 6.73931,12.7433 -2.01628,57.6272 -12.78598,24.0966 -19.86428,-35.5388 -68.737784,1.2394 -48.73744,32.5974 -0.0787,34.5502 -0.59421,69.1136 0.61098,103.6514 23.57635,7.3471 12.92198,22.6918 -6.49672,16.1882 -15.485881,0 -30.971764,0 -46.457648,0 39.970278,-12.9056 21.17761,-62.0241 25.076151,-92.6854 -0.0066,-24.216 -0.03245,-48.4321 -0.0095,-72.6481 z" />
          <path
             d="m 261.22608,1772.641 c 1.95574,9.8944 5.84976,15.4056 10.42116,17.2662 4.6044,1.874 9.83727,0.079 15.15424,-4.6086 10.29179,-9.0736 22.2343,-30.7342 32.60967,-57.6214 3.19948,0.171 3.60152,5.9129 2.5121,14.0725 -1.06377,7.9675 -3.6758,18.9705 -6.41146,28.7863 -2.74469,9.8483 -5.9032,19.598 -8.9897,25.1054 -3.12426,5.5748 -6.69066,7.6385 -10.03576,2.4392 -24.92315,8.7639 -44.74918,15.4161 -69.67232,24.1801 5.73427,-8.6316 10.21591,-20.0752 14.31837,-32.8848 3.93305,-12.2806 8.19867,-28.1155 11.8067,-43.025 0.61774,-2.556 1.22616,-5.1384 1.82139,-7.7382 5.65369,-24.3219 9.80238,-47.5545 12.71081,-73.685 0.22589,-2.0862 0.4402,-4.1581 0.64471,-6.2203 1.00189,-9.7368 1.70075,-18.9868 2.34734,-28.2375 1.59623,-19.3366 1.03087,-40.7549 -1.27759,-65.0694 -0.0573,-0.5965 -0.1155,-1.1933 -0.17445,-1.7904 -2.331,-23.1726 -6.19269,-48.0955 -9.07327,-68.1785 -3.40301,-23.7253 -4.61382,-34.6129 -6.07067,-48.2413 24.00959,-4.9797 48.05998,-10.9092 72.22713,-16.0379 0.9934,15.6148 1.73668,50.5867 1.00836,63.0122 -0.45211,7.7133 -1.4371,12.1091 -3.13152,10.1765 -1.56263,-1.7823 -4.2187,-10.2841 -6.87411,-27.6973 -4.54113,-12.369 -9.46399,-19.5419 -14.54948,-21.811 -5.0406,-2.249 -10.29894,0.3846 -14.66869,7.733 -4.39762,7.3953 -7.74092,19.2998 -8.91815,35.8119 -1.2112,16.9886 -0.0773,36.7875 2.96362,62.0594 0.0699,0.5898 0.14078,1.1815 0.21264,1.7752 0.0901,0.7528 0.18164,1.5085 0.27449,2.2672 1.12681,20.5275 2.74018,35.1709 4.94386,44.7557 2.22533,9.6791 5.15554,14.6063 8.6393,15.9479 6.80277,2.6198 16.33693,-8.8467 21.55574,-28.6024 3.98578,-19.5458 6.58836,-19.3558 8.29884,-5.8415 1.67321,13.2198 1.32734,33.1295 -1.20671,51.4576 -0.27987,2.0821 -0.58031,4.1194 -0.89765,6.1013 -1.81625,11.1111 -4.11556,20.1805 -5.83002,24.0586 0.028,-8.3632 -1.21581,-15.5688 -3.26843,-21.3191 0,0 0,0 0,0 -0.68513,-1.8994 -1.45813,-3.6295 -2.29975,-5.1786 0,0 0,0 0,0 -7.60302,-14.289 -18.74437,-12.9359 -26.45589,7.7856 -0.74461,2.0098 -1.4658,4.206 -2.16657,6.5987 -2.65084,8.9581 -5.05308,20.7942 -7.13564,34.9971 -1.77734,12.8699 -4.50744,25.5846 -7.43263,38.6135 -0.56495,2.5565 -1.13356,5.0974 -1.70482,7.653 -2.35995,10.5457 -4.63356,20.9882 -6.22506,31.1334 0,0 -1.3e-4,7e-4 -1.3e-4,7e-4 z"
             style="font-family:FreeSerif;-inkscape-font-specification:FreeSerif;stroke:none;fill:#26231f;fill-opacity:0.99926805"
             id="path11614"
             inkscape:original-d="m 236.77343,1676.6949 c 27.41385,24.4609 73.15538,13.3832 93.68595,-14.6636 24.11918,2.9411 -3.70423,49.8574 -26.38347,36.0705 -39.23421,0.015 -78.46834,-0.1696 -117.70254,-0.074 38.74527,-16.049 18.78644,-64.767 23.2928,-96.5877 5.0643,-25.9367 -4.88914,-66.0764 -11.09255,-80.0548 43.13302,0.2132 86.26664,0.066 129.39993,0.1089 7.27002,16.4652 -4.80257,49.3282 -17.10837,18.6126 -28.08505,-22.9797 -85.71715,-11.0792 -75.69647,33.3672 -2.17378,35.571 42.44488,35.0508 62.58087,18.1871 22.63642,-24.7154 19.83102,30.4957 10.87832,38.1666 -12.91706,-25.1523 -77.82815,-34.3016 -72.57317,5.4551 2.19573,13.4114 -0.0858,27.7115 0.7187,41.4117 z" />
          <path
             d="m 418.26791,1426.6274 c 5.40309,-9.3021 12.1295,-16.5314 18.386,-18.5756 6.36151,-2.0785 11.81146,1.1464 16.4042,12.422 -13.7584,31.6296 -31.00439,59.6427 -45.57528,108.4602 -0.18803,0.6214 -0.37466,1.2439 -0.55988,1.8673 -6.14109,20.6792 -10.84104,42.3817 -13.13366,63.4938 1.04317,9.9079 2.49597,18.4938 4.23705,26.2022 0,0 0,0 0,0 0.41648,1.7809 0.85006,3.522 1.29902,5.2284 6.05496,23.3586 15.47587,39.1676 20.6268,58.2588 0.54066,2.0197 1.02919,4.079 1.45857,6.1931 0.73072,3.5687 1.29824,7.2693 1.67387,11.1874 0.54642,11.2047 6.3492,22.7787 10.12723,32.8915 3.66173,9.8016 4.94214,17.3767 -5.98792,18.754 -4.6966,0.6289 -14.74875,8.6497 -21.89097,9.9973 -3.54995,0.6698 -6.46895,-0.3198 -7.45961,-4.7237 -0.978,-4.3477 -0.0598,-12.2333 4.6962,-24.9708 0.0783,-12.6589 -1.10581,-24.6614 -3.3275,-35.8129 0,0 0,0 0,0 -0.42149,-2.1327 -0.88316,-4.2275 -1.38367,-6.2857 0,0 0,0 0,0 -5.70337,-23.2861 -16.56166,-42.8953 -23.63678,-51.1249 -6.63565,18.2246 -10.05953,42.1902 -11.20284,62.5376 -0.12598,2.3211 -0.22902,4.6363 -0.30831,6.9381 -0.45763,13.4832 0.0422,25.7118 1.26662,37.3173 1.2807,12.139 2.96199,20.5344 4.29373,28.8901 -7.54664,0.7947 -16.62438,7.7008 -24.52647,9.5837 -3.54057,0.8437 -6.87368,0.6759 -9.62721,-1.5248 7.24712,-18.3448 12.50397,-45.8096 16.20096,-70.1514 0.3629,-2.389 0.71337,-4.7955 1.04934,-7.2142 3.13426,-22.1153 5.11148,-43.5595 6.19201,-68.3349 0.0775,-1.9338 0.14797,-3.8638 0.2124,-5.7953 0.67639,-17.6637 0.59436,-36.0334 1.03542,-53.8583 0.41202,-10.7822 0.12851,-22.652 -0.68788,-35.6606 -0.0372,-0.5823 -0.0753,-1.1658 -0.11434,-1.7505 -1.50848,-21.8958 -4.69439,-48.1136 -6.67944,-68.0825 -2.37543,-23.8959 -2.80774,-34.985 -3.38504,-46.4779 2.54723,0.038 6.12325,-0.7976 9.97395,-1.8165 9.98323,-2.6418 21.79457,-6.4735 22.47772,-0.036 -5.31805,11.4676 -8.50897,28.272 -9.61672,48.676 -1.09932,20.2486 -0.10796,42.6269 1.18735,64.2542 5.7e-4,0.01 0.10094,1.7321 0.1015,1.7418 0.89424,15.4889 3.42219,54.4186 3.90941,61.0019 5.28693,-19.7223 13.0223,-44.8102 20.69625,-67.0469 0.21918,-0.6346 0.43917,-1.269 0.65994,-1.9031 8.93732,-25.9883 18.5164,-49.7534 29.27854,-71.1669 1.29262,-12.5181 0.79079,-22.7922 -0.76344,-28.8293 -1.56579,-6.0821 -4.31577,-8.2681 -7.57712,-4.7542 z"
             style="font-family:FreeSerif;-inkscape-font-specification:FreeSerif;stroke:none;fill:#26231f;fill-opacity:0.99926805"
             id="path11616"
             inkscape:original-d="m 492.4908,1527.499 c 18.4463,-7.4274 44.40141,-11.0518 61.21084,-0.081 -29.75452,16.9763 -107.44531,41.118 -118.38161,73.2186 11.21387,26.9846 58.56849,43.0892 75.98699,66.4401 8.46728,13.5909 54.16146,34.5203 16.75463,31.6039 -16.11299,-1.2142 -69.02564,9.9228 -45.10001,-16.5184 -7.72668,-25.2884 -54.95273,-51.7778 -77.40609,-60.5452 -20.51019,21.7541 14.50862,61.4001 21.22899,78.066 -18.69096,-1.4926 -43.3207,3.4873 -58.49807,-2.1716 34.82102,-24.5607 -1.8915,-73.8625 5.09068,-108.9993 5.59266,-22.1669 -2.40642,-57.306 -6.47706,-67.0272 16.48156,0.8896 55.64415,-1.9807 58.0657,2.0359 -26.34639,14.1524 -28.29823,56.1417 -21.047,77.6437 19.38358,-20.06 62.47429,-41.8433 101.83698,-58.0545 7.04058,-10.9612 -2.07208,-18.2024 -13.26497,-15.611 z"
             sodipodi:nodetypes="ccccccccccccccc" />
          <path
             d="m 498.54525,1667.1632 c 0.18898,-1.2147 0.36427,-2.4039 0.52604,-3.5705 0.3228,-2.3265 0.58727,-4.5517 0.79543,-6.6927 1.51399,-15.1786 0.21926,-25.9568 -2.62469,-34.839 -2.80847,-8.7714 -7.12136,-15.5695 -11.61248,-22.2276 -0.98924,-1.4572 -2.00499,-2.9262 -3.01487,-4.3962 -5.9048,-8.7776 -11.73022,-18.0177 -16.84067,-33.4742 -3.97685,-11.1379 -7.1897,-26.4901 -9.45775,-42.9698 -0.0751,-0.5395 -0.14908,-1.0806 -0.222,-1.6231 -3.50159,-25.6866 -4.69711,-53.039 -1.57209,-76.2902 3.08322,-22.9404 10.29476,-40.0916 18.17271,-44.4666 5.31044,4.1056 12.79507,2.5875 19.49313,4.6789 6.93293,2.1648 12.31372,7.7063 16.77946,25.5914 0.99824,9.5386 1.28714,12.657 2.81297,25.8024 1.14946,9.9029 2.38044,20.0979 2.98405,27.7585 0.60292,7.652 0.57767,12.8121 -0.58691,12.6475 -1.15679,-0.1636 -3.47529,-5.594 -7.25422,-19.6072 -2.81575,-13.4974 -6.86086,-25.7365 -10.85015,-34.635 -4.06813,-9.0744 -8.35607,-15.3655 -12.55458,-17.6895 -4.17219,-2.3094 -8.41222,-0.7152 -11.81287,6.0016 -3.39662,6.7088 -5.85621,18.4206 -5.78093,36.0535 0.91198,20.0117 4.24717,36.9 8.11755,49.8309 0.15444,0.5175 0.31032,1.0303 0.46759,1.5384 4.38619,14.277 9.79037,24.8109 15.24891,33.1733 5.50251,8.4297 11.00989,14.6004 15.71707,20.429 3.81616,3.5969 7.33025,9.4851 9.98203,16.7334 0.56376,1.5011 1.09233,3.0708 1.58168,4.7045 5.02275,16.9892 5.33865,37.661 0.51943,60.8498 -0.46883,2.2954 -0.98581,4.6032 -1.54756,6.9207 -3.78373,15.5878 -9.69034,32.31 -16.2558,46.7575 -5.43142,12.0661 -10.18296,20.3266 -15.035,26.0345 -4.8286,5.6804 -9.61741,8.6423 -14.56669,10.0896 -9.83266,2.8753 -19.82807,-0.4146 -28.58397,-0.3706 -2.82327,-3.0228 -3.81744,-12.843 -3.11821,-24.255 0.69911,-11.4099 3.01229,-24.0429 5.34561,-32.9321 0.77528,-2.9583 1.54603,-5.4829 2.25961,-7.3512 1.54103,-3.9787 2.85029,-5.0328 3.47475,-1.158 0,0 0,0 0,0 0.23183,1.4446 0.36755,3.556 0.38284,6.4517 0.0184,3.0707 -0.0905,6.8321 -0.31891,11.7118 0.85333,18.9623 7.96108,32.1566 16.40973,33.4294 4.22433,0.6363 8.68614,-1.7266 13.14294,-7.7668 4.42579,-5.9982 8.99819,-15.7896 13.7493,-29.6474 2.40777,-7.025 4.32865,-14.0558 5.64752,-21.2256 z"
             style="font-family:FreeSerif;-inkscape-font-specification:FreeSerif;stroke:none;fill:#26231f;fill-opacity:0.99926805"
             id="path11618"
             inkscape:original-d="m 632.24006,1662.0283 c -5.24828,-38.3811 -51.07366,-42.9812 -73.40214,-67.6972 -24.79604,-25.3882 -7.82231,-72.5243 27.66784,-76.4449 20.25032,4.5345 52.44037,-0.7427 64.39913,16.9334 2.18385,12.1964 2.47978,50.246 -11.02705,21.9422 -7.68385,-27.2921 -57.39749,-40.9819 -66.94103,-8.8373 -4.30967,30.3568 28.7473,44.196 50.72458,55.7204 30.34384,12.8497 48.80751,56.2678 22.57185,82.0446 -24.61573,24.5837 -63.88736,12.0949 -94.16475,8.4496 -18.08653,-8.2441 -11.03092,-65.3022 3.41604,-27.0543 14.88213,23.9146 59.2238,37.7717 74.24939,7.1281 1.89913,-3.876 2.74827,-7.9052 2.50614,-12.1846 z" />
          <path
             d="m 559.63221,1412.7296 c -4.14053,-6.386 -7.60691,-6.8703 -10.9983,-3.4552 -3.35598,3.3795 -6.33585,10.3988 -8.83777,18.5518 -4.98629,16.2488 -7.85889,36.6959 -11.2316,39.5974 -6.1757,-22.9629 -5.98582,-44.8238 -1.83828,-60.1577 4.14222,-15.3142 11.07044,-21.3137 16.88065,-13.8117 21.54069,-3.5292 43.32653,-7.469 64.30967,-12.3285 0.90276,3.8919 2.83505,15.6143 4.21718,23.2613 1.54375,8.5413 3.62655,19.251 4.61959,25.9455 1.07867,7.2718 1.31466,12.375 -0.18835,12.4134 -1.47734,0.038 -4.79955,-4.9066 -9.56877,-18.4461 -5.87071,-13.0195 -10.18345,-19.7591 -14.24132,-21.3747 -3.961,-1.5769 -7.59542,2.0036 -10.20078,9.2524 -2.61828,7.2846 -4.01934,17.8562 -3.5253,30.0847 0.49099,12.1532 2.8473,25.6285 7.17218,38.1504 0,0 0,0 0,0 0.15054,0.4364 0.30352,0.8714 0.45893,1.305 0,0 0,0 0,0 1.14284,3.2032 2.41648,6.3276 3.82193,9.3223 4.27751,21.6805 7.14901,41.6146 7.24273,62.3829 0,0 0,0 0,0 0.0128,1.6899 0.007,3.3814 -0.0157,5.0755 0,0 0,0 0,0 -0.33784,21.4925 -3.43915,41.5617 -8.21982,62.9558 -0.50203,2.2692 -1.02024,4.5402 -1.55197,6.8175 -2.96973,12.7087 -5.97932,24.2917 -8.94905,37.0004 6.36691,2.7089 6.18275,11.4241 3.30991,18.9946 -2.86342,7.5456 -8.34283,13.7219 -13.62442,10.9041 -9.99181,4.5696 -19.81546,8.9126 -29.49062,13.0662 6.70243,-7.9539 12.3997,-19.054 17.41646,-31.352 4.96969,-12.1827 9.67661,-26.6035 13.29511,-40.8068 0.58098,-2.2831 1.13639,-4.5765 1.66388,-6.8776 5.07134,-21.8503 7.08543,-41.4931 7.58835,-62.7201 0.0364,-1.7243 0.0622,-3.4296 0.0797,-5.1201 0.079,-5.6042 0.055,-10.9614 0.0381,-16.2318 -0.99124,-19.1174 -3.92668,-37.7473 -7.63694,-58.0306 -0.003,-0.016 -0.25778,-1.396 -0.26071,-1.4119 -4.32524,-23.2164 -9.66043,-48.426 -11.73439,-72.9565 0,0 -2.4e-4,10e-5 -2.4e-4,10e-5 z"
             style="font-family:FreeSerif;-inkscape-font-specification:FreeSerif;stroke:none;fill:#26231f;fill-opacity:0.99926805"
             id="path11620"
             inkscape:original-d="m 739.70667,1532.6948 c -24.86062,-14.8728 -50.68548,21.6162 -63.02062,23.6309 -9.38432,-23.2946 14.10248,-43.585 36.14202,-34.831 38.55957,0 77.11914,0 115.67871,0 6.73931,12.7433 -2.01628,57.6272 -12.78598,24.0966 -19.86426,-35.5388 -68.73776,1.2394 -48.73743,32.5974 -0.0787,34.5502 -0.59421,69.1136 0.61098,103.6514 23.57635,7.3471 12.92198,22.6918 -6.49672,16.1882 -15.48588,0 -30.97177,0 -46.45765,0 39.97027,-12.9056 21.17761,-62.0241 25.07612,-92.6854 -0.007,-24.216 -0.0324,-48.4321 -0.009,-72.6481 z" />
        </g>
      </g>
    </g>
  </g>
</svg>
